{"title":"L.Avventura.1960.720p.BluRay.x264-tars","uid":11582799,"size":5867689131,"categoryP":"video","categoryS":"hd___movies","magnet":"?xt=urn:btih:b218005e744bb47593b9e8e5aca3940ff75c75f0&amp;dn=L.Avventura.1960.720p.BluRay.x264-tars&amp;tr=udp%3A%2F%2Ftracker.openbittorrent.com%3A80&amp;tr=udp%3A%2F%2Fopen.demonii.com%3A1337&amp;tr=udp%3A%2F%2Ftracker.coppersurfer.tk%3A6969&amp;tr=udp%3A%2F%2Fexodus.desync.com%3A6969","seeders":1,"leechers":0,"uploader":"stn1","files":-1,"time":1417142224,"description":"This ground-breaking film won a Special Jury Prize at the 1960 Cannes Film Festival and established its director, Michelangelo Antonioni, as a major international talent. The plot concerns a yachting trip by a small group of jaded socialites, including Sandro (Gabriele Ferzetti), an aging architect who sold out for easy money long ago, his mistress Anna (Lea Massari), and her friend Claudia (Monica Vitti), who doesn't fit in with the wealthy jet-setters' dissolute ethics. When Anna disappears during a tour of a volcanic island, Claudia initially blames Sandro's emotionally barren behavior toward her. As they search the island, however, Claudia and Sandro grow closer and -- when it is apparent that Anna is gone forever -- become lovers. Unfortunately, Sandro cannot find anything decent inside himself and betrays Claudia with a local prostitute. Caught in the act, Sandro has a heartrending breakdown on a desolate beach, but Claudia silently forgives him. L'avventura  caught many audiences who were expecting a mystery by surprise; as in La notte (1961), The Eclipse (1962), and Red Desert (1964), Antonioni is interested less in developing a logical story than in exploring states of feeling and breakdowns in human connection.\n\nGeneral\nComplete name : l.avventura.1960.720p.bluray.x264-tars.mkv\nFormat : Matroska\nFormat version : Version 2\nFile size : 5.46 GiB\nDuration : 2h 23mn\nOverall bit rate : 5 467 Kbps\nWriting application : mkvmerge v6.6.0 ('The Edge Of The In Between') built on Dec 1 2013 17:55:00\nWriting library : libebml v1.3.0 + libmatroska v1.4.1\n\nVideo\nID : 1\nFormat : AVC\nFormat/Info : Advanced Video Codec\nFormat profile : &lt;a class=&quot;__cf_email__&quot; href=&quot;/cdn-cgi/l/email-protection&quot; data-cfemail=&quot;521a3b353a121e667c63&quot;&gt;[email&amp;#160;protected]&lt;/a&gt;&lt;script cf-hash='f9e31' type=&quot;text/javascript&quot;&gt;\n/* &lt;![CDATA[ */!function(){try{var t=&quot;currentScript&quot;in document?document.currentScript:function(){for(var t=document.getElementsByTagName(&quot;script&quot;),e=t.length;e--;)if(t[e].getAttribute(&quot;cf-hash&quot;))return t[e]}();if(t&amp;&amp;t.previousSibling){var e,r,n,i,c=t.previousSibling,a=c.getAttribute(&quot;data-cfemail&quot;);if(a){for(e=&quot;&quot;,r=parseInt(a.substr(0,2),16),n=2;a.length-n;n+=2)i=parseInt(a.substr(n,2),16)^r,e+=String.fromCharCode(i);e=document.createTextNode(e),c.parentNode.replaceChild(e,c)}}}catch(u){}}();/* ]]&gt; */&lt;/script&gt;\nFormat settings, CABAC : Yes\nFormat settings, ReFrames : 5 frames\nCodec ID : V_MPEG4/ISO/AVC\nDuration : 2h 23mn\nBit rate : 4 826 Kbps\nWidth : 1 280 pixels\nHeight : 688 pixels\nDisplay aspect ratio : 1.85:1\nFrame rate mode : Constant\nFrame rate : 23.976 fps\nColor space : YUV\nChroma subsampling : 4:2:0\nBit depth : 8 bits\nScan type : Progressive\nBits/(Pixel*Frame) : 0.229\nStream size : 4.72 GiB (86%)\nWriting library : x264 core 142 r2479 dd79a61\nEncoding settings : cabac=1 / ref=5 / deblock=1:-3:-3 / analyse=0x3:0x113 / me=umh / subme=8 / psy=1 / psy_rd=1.10:0.00 / mixed_ref=1 / me_range=16 / chroma_me=1 / trellis=1 / 8x8dct=1 / cqm=0 / deadzone=21,11 / fast_pskip=1 / chroma_qp_offset=-2 / threads=18 / lookahead_threads=3 / sliced_threads=0 / nr=0 / decimate=1 / interlaced=0 / bluray_compat=0 / constrained_intra=0 / bframes=3 / b_pyramid=2 / b_adapt=2 / b_bias=0 / direct=3 / weightb=1 / open_gop=0 / weightp=2 / keyint=240 / keyint_min=24 / scenecut=40 / intra_refresh=0 / rc_lookahead=50 / rc=2pass / mbtree=1 / bitrate=4826 / ratetol=1.0 / qcomp=0.60 / qpmin=0 / qpmax=69 / qpstep=4 / cplxblur=20.0 / qblur=0.5 / ip_ratio=1.40 / aq=1:0.75\nLanguage : English\nDefault : Yes\nForced : No\n\nAudio\nID : 2\nFormat : AC-3\nFormat/Info : Audio Coding 3\nMode extension : CM (complete main)\nFormat settings, Endianness : Big\nCodec ID : A_AC3\nDuration : 2h 23mn\nBit rate mode : Constant\nBit rate : 640 Kbps\nChannel(s) : 1 channel\nChannel positions : Front: C\nSampling rate : 48.0 KHz\nBit depth : 16 bits\nCompression mode : Lossy\nStream size : 655 MiB (12%)\nLanguage : Italian\nDefault : Yes\nForced : No\n\nText\nID : 3\nFormat : UTF-8\nCodec ID : S_TEXT/UTF8\nCodec ID/Info : UTF-8 Plain Text\nLanguage : English\nDefault : Yes\nForced : Yes","torrent":{"xt":"urn:btih:b218005e744bb47593b9e8e5aca3940ff75c75f0","amp;dn":"L.Avventura.1960.720p.BluRay.x264-tars","amp;tr":["udp%3A%2F%2Ftracker.openbittorrent.com%3A80","udp%3A%2F%2Fopen.demonii.com%3A1337","udp%3A%2F%2Ftracker.coppersurfer.tk%3A6969","udp%3A%2F%2Fexodus.desync.com%3A6969"],"infoHash":"b218005e744bb47593b9e8e5aca3940ff75c75f0","infoHashBuffer":{"type":"Buffer","data":[178,24,0,94,116,75,180,117,147,185,232,229,172,163,148,15,247,92,117,240]},"announce":[],"urlList":[]}}